<svg width="17" height="15" viewBox="0 0 17 15" fill="none" xmlns="http://www.w3.org/2000/svg">
<path d="M0.958008 5.55711C0.958023 4.74569 1.20417 3.95337 1.66394 3.28478C2.12371 2.61619 2.77547 2.1028 3.53314 1.8124C4.29081 1.522 5.11875 1.46826 5.9076 1.65829C6.69645 1.84831 7.40911 2.27314 7.95145 2.87669C7.98964 2.91753 8.03583 2.9501 8.08713 2.97236C8.13843 2.99462 8.19375 3.00611 8.24967 3.00611C8.3056 3.00611 8.36092 2.99462 8.41222 2.97236C8.46352 2.9501 8.50971 2.91753 8.5479 2.87669C9.08854 2.26922 9.80136 1.84081 10.5915 1.64848C11.3816 1.45615 12.2116 1.50903 12.9709 1.80006C13.7303 2.0911 14.383 2.6065 14.8422 3.27766C15.3013 3.94882 15.5452 4.74391 15.5413 5.55711C15.5413 7.2269 14.4476 8.47377 13.3538 9.56752L9.34926 13.4416C9.21339 13.5976 9.04587 13.723 8.85783 13.8093C8.66979 13.8956 8.46554 13.941 8.25864 13.9423C8.05173 13.9436 7.84692 13.9008 7.6578 13.8169C7.46868 13.733 7.29959 13.6098 7.16176 13.4554L3.14551 9.56752C2.05176 8.47377 0.958008 7.23419 0.958008 5.55711Z" stroke="white" stroke-width="1.45833" stroke-linecap="round" stroke-linejoin="round"/>
</svg>
